<svg xmlns="http://www.w3.org/2000/svg" id="Layer_1" data-name="Layer 1" viewBox="0 0 1350.91 649.45" class="style_svg">
	<title>Web Synoptique Energitique Electrique_Co-Produit V2 [Récupéré]</title>
   <style type="text/css">
    .incident_True{
    fill: red;
  }
    .incident_False{
    fill: green;
  }
    .incident_Null{
    fill: white;

  }
      .data{
    stroke: rgb(0, 88, 94) ;
    stroke-width: 0.5;
  }
     .Name_Compteur{
	 font-family : balto;
	 font-weight : 700;
	 font-size : 14px;
	 }

</style>
<rect id="reportCode" dl="DDR03" zpm="" prev="DDR013"/>

	<path d="M866.07,246.12" transform="translate(-0.08 -0.71)" fill="none" stroke="#00a651" stroke-miterlimit="10" stroke-width="2"/><text x="-0.08" y="-0.71"/>
	<rect x="809.56" y="213.29" width="294.74" height="404.6" rx="12" ry="12" fill="none" stroke="#231f20" stroke-miterlimit="10" stroke-width="0.75"/>
	<line x1="826.34" y1="341.02" x2="826.34" y2="631.57" fill="none" stroke="#008a68" stroke-miterlimit="10" stroke-width="3"/>
	<rect x="850.39" y="448.93" width="233.73" height="72.28" rx="12" ry="12" fill="none" stroke="#231f20" stroke-miterlimit="10" stroke-width="0.75"/>
	<rect x="850.39" y="535.29" width="233.73" height="72.28" rx="12" ry="12" fill="none" stroke="#231f20" stroke-miterlimit="10" stroke-width="0.75"/>
	<rect x="880.9" y="512.5" width="155" height="13.4" fill="#fff"/><text transform="translate(913.91 518.64)" font-size="12.12" fill="#231f20" class="Name_Compteur">
		<tspan x="0" y="0" id="DDR03___MZCB4A2___">Atelier Maintenance</tspan>

	</text>
	<rect x="910" y="599.12" width="132.35" height="15.02" fill="#fff"/><text transform="translate(938.31 608.75)" font-size="12.12" fill="#231f20" class="Name_Compteur">
		<tspan x="0" y="0" id="DDR03___MZCB4A3___">Tableau de Prise</tspan>
	</text>
	<rect x="850.39" y="275.99" width="233.73" height="72.28" rx="12" ry="12" fill="none" stroke="#231f20" stroke-miterlimit="10" stroke-width="0.75"/>
	<rect x="920" y="341.44" width="85" height="14.34" fill="#fff"/><text transform="translate(954.74 349.46)" font-size="12.12" fill="#231f20" class="Name_Compteur">
		<tspan x="0" y="0" id="DDR03___MZCB4A4___">Collect</tspan>
	</text>
	<line x1="1275.88" y1="631.08" x2="198.46" y2="631.08" fill="none" stroke="#008a68" stroke-miterlimit="10" stroke-width="3"/><text x="-0.08" y="-0.71"/>
	<rect x="166.92" y="85.11" width="606" height="552.17" rx="12" ry="12" fill="none" stroke="#231f20" stroke-miterlimit="10" stroke-width="0.75"/>
	<rect x="701.02" width="106.95" height="14.34" fill="#fff"/>
	<line x1="483.5" y1="97.11" x2="483.5" y2="631.45" fill="none" stroke="#008a68" stroke-miterlimit="10" stroke-width="3"/>
	<rect x="507.55" y="448.38" width="233.73" height="72.28" rx="12" ry="12" fill="none" stroke="#231f20" stroke-miterlimit="10" stroke-width="0.75"/>
	<rect x="507.55" y="534.74" width="233.73" height="72.28" rx="12" ry="12" fill="none" stroke="#231f20" stroke-miterlimit="10" stroke-width="0.75"/>
	<rect x="600" y="511.95" width="50" height="15.27" fill="#fff"/><text transform="translate(610 521.84)" font-size="12.12" fill="#231f20" class="Name_Compteur">
		<tspan x="0" y="0" id="DDR03___MZCB4B2___">Aero</tspan>
	</text>
	<rect x="600" y="595.49" width="60" height="14.34" fill="#fff"/><text transform="translate(605.8 606.32)" font-size="12.12" fill="#231f20" class="Name_Compteur">
		
		<tspan x="0" y="0" id="DDR03___MZCB4B1___">Oxydeur</tspan>
	___
	</text>
	<rect x="508.49" y="93.56" width="256.73" height="250.15" rx="12" ry="12" fill="none" stroke="#231f20" stroke-miterlimit="10" stroke-width="0.75"/>
	<rect x="521.6" y="256.55" width="233.73" height="72.28" rx="12" ry="12" fill="none" stroke="#231f20" stroke-miterlimit="10" stroke-width="0.75"/>
	<rect x="600" y="320.12" width="60" height="15.27" fill="#fff"/><text transform="translate(610 330.01)" font-size="12.12" fill="#231f20" class="Name_Compteur">
		<tspan x="0" y="0" id="DDR03___MZCB4B5___">SANG2</tspan>
	</text>
	<rect x="508.49" y="360.14" width="233.73" height="72.28" rx="12" ry="12" fill="none" stroke="#231f20" stroke-miterlimit="10" stroke-width="0.75"/>
	<rect x="590" y="423.72" width="75" height="14.34" fill="#fff"/><text transform="translate(609.55 432.67)" font-size="12.12" fill="#231f20" class="Name_Compteur">
		<tspan x="0" y="0" id="DDR03___MZCB4B3___">PLUME</tspan>
	</text>
	<rect x="523.04" y="167.84" width="233.73" height="72.28" rx="12" ry="12" fill="none" stroke="#231f20" stroke-miterlimit="10" stroke-width="0.75"/>
	<rect x="575" y="229.54" width="90" height="15.27" fill="#fff"/><text transform="translate(610 238.96)" font-size="12.12" fill="#231f20" class="Name_Compteur">
		<tspan x="0" y="0" id="DDR03___MZCB4B4___">SANG1</tspan>
	</text>
	<rect x="590" y="87.9" width="70" height="12.34" fill="#fff"/><text transform="translate(610 100.98)" font-size="12.12" fill="#231f20" class="Name_Compteur">
		<tspan x="0" y="0" id="DDR03___MZC120___">SANG</tspan>
	</text>
	<circle cx="588.83" cy="235.08" r="15.02" transform="translate(318.13 807.73) rotate(-86.5)" fill="#fff" stroke="#008a68" stroke-miterlimit="10" stroke-width="3" class="incident_Null" id="___MZCB4B4___TAINC"/>
	<circle cx="588.83" cy="325.19" r="15.02" transform="translate(-67.75 471.05) rotate(-41.5)" fill="#fff" stroke="#008a68" stroke-miterlimit="10" stroke-width="3" class="incident_Null" id="___MZCB4B5___TAINC"/>
	<line x1="483.5" y1="235.09" x2="575.6" y2="234.36" fill="none" stroke="#008a68" stroke-miterlimit="10" stroke-width="3"/>
	<line x1="485.37" y1="326.14" x2="574.54" y2="325.41" fill="none" stroke="#008a68" stroke-miterlimit="10" stroke-width="3"/><text transform="translate(1285.79 172.6) scale(2.34 1)" font-size="9.39" fill="#60c9da" stroke="#60c9da" stroke-miterlimit="10" font-family="balto" text-decoration="underline">TR1</text>
	<g id="_Groupe_" data-name="&lt;Groupe&gt;">
		<g id="_Groupe_2" data-name="&lt;Groupe&gt;">
			<path id="_Tracé_transparent_" data-name="&lt;Tracé transparent&gt;" d="M1324.05,155.22h-33.49a1,1,0,0,1-1.05-.92V128.73a1,1,0,0,1,1.05-.92h33.49a1,1,0,0,1,1.05.92V154.3A1,1,0,0,1,1324.05,155.22Zm-32.44-1.83H1323V129.64h-31.38Z" transform="translate(-0.08 -0.71)" fill="#60c9da" stroke="#60c9da" stroke-miterlimit="10" stroke-width="0"/>
		</g>
		<g id="_Groupe_3" data-name="&lt;Groupe&gt;">
			<g id="_Groupe_4" data-name="&lt;Groupe&gt;">
				<path id="_Tracé_" data-name="&lt;Tracé&gt;" d="M1301.27,127.24h-6a.93.93,0,1,1,0-1.83h6a.93.93,0,1,1,0,1.83Z" transform="translate(-0.08 -0.71)" fill="#60c9da" stroke="#60c9da" stroke-miterlimit="10" stroke-width="0"/>
			</g>
			<g id="_Groupe_5" data-name="&lt;Groupe&gt;">
				<path id="_Tracé_2" data-name="&lt;Tracé&gt;" d="M1301.27,125h-6a.93.93,0,1,1,0-1.83h6a.93.93,0,1,1,0,1.83Z" transform="translate(-0.08 -0.71)" fill="#60c9da" stroke="#60c9da" stroke-miterlimit="10" stroke-width="0"/>
			</g>
			<g id="_Groupe_6" data-name="&lt;Groupe&gt;">
				<path id="_Tracé_3" data-name="&lt;Tracé&gt;" d="M1301.06,122.66h-5.62a.93.93,0,1,1,0-1.83h5.62a.93.93,0,1,1,0,1.83Z" transform="translate(-0.08 -0.71)" fill="#60c9da" stroke="#60c9da" stroke-miterlimit="10" stroke-width="0"/>
			</g>
			<g id="_Groupe_7" data-name="&lt;Groupe&gt;">
				<path id="_Tracé_4" data-name="&lt;Tracé&gt;" d="M1300.85,120.37h-5.2a.93.93,0,1,1,0-1.83h5.2a.93.93,0,1,1,0,1.83Z" transform="translate(-0.08 -0.71)" fill="#60c9da" stroke="#60c9da" stroke-miterlimit="10" stroke-width="0"/>
			</g>
		</g>
		<g id="_Groupe_8" data-name="&lt;Groupe&gt;">
			<g id="_Groupe_9" data-name="&lt;Groupe&gt;">
				<path id="_Tracé_5" data-name="&lt;Tracé&gt;" d="M1319.38,127.24h-6a.93.93,0,1,1,0-1.83h6a.93.93,0,1,1,0,1.83Z" transform="translate(-0.08 -0.71)" fill="#60c9da" stroke="#60c9da" stroke-miterlimit="10" stroke-width="0"/>
			</g>
			<g id="_Groupe_10" data-name="&lt;Groupe&gt;">
				<path id="_Tracé_6" data-name="&lt;Tracé&gt;" d="M1319.38,125h-6a.93.93,0,1,1,0-1.83h6a.93.93,0,1,1,0,1.83Z" transform="translate(-0.08 -0.71)" fill="#60c9da" stroke="#60c9da" stroke-miterlimit="10" stroke-width="0"/>
			</g>
			<g id="_Groupe_11" data-name="&lt;Groupe&gt;">
				<path id="_Tracé_7" data-name="&lt;Tracé&gt;" d="M1319.17,122.66h-5.62a.93.93,0,1,1,0-1.83h5.62a.93.93,0,1,1,0,1.83Z" transform="translate(-0.08 -0.71)" fill="#60c9da" stroke="#60c9da" stroke-miterlimit="10" stroke-width="0"/>
			</g>
			<g id="_Groupe_12" data-name="&lt;Groupe&gt;">
				<path id="_Tracé_8" data-name="&lt;Tracé&gt;" d="M1319,120.37h-5.2a.93.93,0,1,1,0-1.83h5.2a.93.93,0,1,1,0,1.83Z" transform="translate(-0.08 -0.71)" fill="#60c9da" stroke="#60c9da" stroke-miterlimit="10" stroke-width="0"/>
			</g>
		</g>
		<g id="_Groupe_13" data-name="&lt;Groupe&gt;">
			<path id="_Tracé_transparent_2" data-name="&lt;Tracé transparent&gt;" d="M1328.72,158.71h-42.83a1,1,0,0,1-1.05-.92v-3.5a1,1,0,0,1,1.05-.92h42.83a1,1,0,0,1,1.05.92v3.5A1,1,0,0,1,1328.72,158.71Zm-41.78-1.83h40.72v-1.66h-40.72Z" transform="translate(-0.08 -0.71)" fill="#60c9da" stroke="#60c9da" stroke-miterlimit="10" stroke-width="0"/>
		</g>
		<g id="_Groupe_14" data-name="&lt;Groupe&gt;">
			<g id="_Groupe_15" data-name="&lt;Groupe&gt;">
				<polygon id="_Tracé_9" data-name="&lt;Tracé&gt;" points="1307.69 146.96 1305.75 146.25 1308.56 140.45 1302.23 141.76 1307.05 131.34 1309 132.02 1305.7 139.16 1312.12 137.83 1307.69 146.96" fill="#60c9da" stroke="#60c9da" stroke-miterlimit="10" stroke-width="0"/>
			</g>
			<g id="_Groupe_16" data-name="&lt;Groupe&gt;">
				<polygon id="_Tracé_10" data-name="&lt;Tracé&gt;" points="1305.66 148.78 1303.83 145.16 1305.76 144.42 1306.73 146.34 1309.21 145.34 1310.09 147.01 1305.66 148.78" fill="#60c9da" stroke="#60c9da" stroke-miterlimit="10" stroke-width="0"/>
			</g>
		</g>
	</g>
	<circle cx="588.83" cy="427.5" r="15.02" transform="translate(-135.54 496.73) rotate(-41.5)" fill="#fff" stroke="#008a68" stroke-miterlimit="10" stroke-width="3" class="incident_Null" id="___MZCB4B3___TAINC"/>
	<line x1="484.43" y1="428.46" x2="574.67" y2="427.73" fill="none" stroke="#008a68" stroke-miterlimit="10" stroke-width="3"/>
	<rect x="210.46" y="83.58" width="126.69" height="12.8" fill="#fff"/><text transform="translate(245.35 89)" font-size="12.12" fill="#231f20" class="Name_Compteur">
		<tspan x="0" y="0" id="DDR03___MZCB4B___">Géneral process</tspan>

	</text>
	<rect x="880" y="206.89" width="105" height="12.8" fill="#fff"/><text transform="translate(910.15 210.55)" font-size="12.12" fill="#231f20" class="Name_Compteur">
		<tspan x="0" y="0" id="DDR03___MZCB4A___">Facilité TR4</tspan>
	</text>
	<circle cx="891.31" cy="206.33" r="15.02" transform="translate(630.81 1082.65) rotate(-86.5)" fill="#fff" stroke="#a7a9ac" stroke-miterlimit="10" stroke-width="3" class="incident_Null" id="___MZCB4A___TAINC"/>
	<rect x="827.6" y="114.23" width="233.73" height="72.28" rx="12" ry="12" fill="none" stroke="#231f20" stroke-miterlimit="10" stroke-width="0.75"/>
	<rect x="858.11" y="104.84" width="153.24" height="28.63" fill="#fff"/><text transform="translate(862.25 119.64)" font-size="12.12" fill="#231f20" class="Name_Compteur">
		<tspan x="0" y="0" id="DDR03___MZCB1B1___">Armoire Distribution</tspan>
	</text>
	<circle cx="996" cy="113" r="15.02" transform="translate(835 1099.52) rotate(-86.5)" fill="#fff" stroke="#60c9da" stroke-miterlimit="10" stroke-width="3" class="incident_Null" id="___MZCB1B1___TAINC"/>
	<rect x="153.92" y="10.29" width="983" height="631" rx="12" ry="12" fill="none" stroke="#231f20" stroke-miterlimit="10" stroke-width="0.75"/><text transform="translate(1280.28 592.95) scale(2.34 1)" font-size="9.39" fill="#008a68" stroke="#008a68" stroke-miterlimit="10" font-family="balto" text-decoration="underline">TR4</text>
	<g id="_Groupe_17" data-name="&lt;Groupe&gt;">
		<g id="_Groupe_18" data-name="&lt;Groupe&gt;">
			<path id="_Tracé_transparent_3" data-name="&lt;Tracé transparent&gt;" d="M1319.58,577.44h-33.49a1,1,0,0,1-1.05-.92V551a1,1,0,0,1,1.05-.92h33.49a1,1,0,0,1,1.05.92v25.57A1,1,0,0,1,1319.58,577.44Zm-32.44-1.83h31.38V551.87h-31.38Z" transform="translate(-0.08 -0.71)" fill="#008a68" stroke="#008a68" stroke-miterlimit="10" stroke-width="0"/>
		</g>
		<g id="_Groupe_19" data-name="&lt;Groupe&gt;">
			<g id="_Groupe_20" data-name="&lt;Groupe&gt;">
				<path id="_Tracé_11" data-name="&lt;Tracé&gt;" d="M1296.8,549.47h-6a.93.93,0,1,1,0-1.83h6a.93.93,0,1,1,0,1.83Z" transform="translate(-0.08 -0.71)" fill="#008a68" stroke="#008a68" stroke-miterlimit="10" stroke-width="0"/>
			</g>
			<g id="_Groupe_21" data-name="&lt;Groupe&gt;">
				<path id="_Tracé_12" data-name="&lt;Tracé&gt;" d="M1296.8,547.18h-6a.93.93,0,1,1,0-1.83h6a.93.93,0,1,1,0,1.83Z" transform="translate(-0.08 -0.71)" fill="#008a68" stroke="#008a68" stroke-miterlimit="10" stroke-width="0"/>
			</g>
			<g id="_Groupe_22" data-name="&lt;Groupe&gt;">
				<path id="_Tracé_13" data-name="&lt;Tracé&gt;" d="M1296.59,544.89H1291a.93.93,0,1,1,0-1.83h5.62a.93.93,0,1,1,0,1.83Z" transform="translate(-0.08 -0.71)" fill="#008a68" stroke="#008a68" stroke-miterlimit="10" stroke-width="0"/>
			</g>
			<g id="_Groupe_23" data-name="&lt;Groupe&gt;">
				<path id="_Tracé_14" data-name="&lt;Tracé&gt;" d="M1296.38,542.59h-5.2a.93.93,0,1,1,0-1.83h5.2a.93.93,0,1,1,0,1.83Z" transform="translate(-0.08 -0.71)" fill="#008a68" stroke="#008a68" stroke-miterlimit="10" stroke-width="0"/>
			</g>
		</g>
		<g id="_Groupe_24" data-name="&lt;Groupe&gt;">
			<g id="_Groupe_25" data-name="&lt;Groupe&gt;">
				<path id="_Tracé_15" data-name="&lt;Tracé&gt;" d="M1314.92,549.47h-6a.93.93,0,1,1,0-1.83h6a.93.93,0,1,1,0,1.83Z" transform="translate(-0.08 -0.71)" fill="#008a68" stroke="#008a68" stroke-miterlimit="10" stroke-width="0"/>
			</g>
			<g id="_Groupe_26" data-name="&lt;Groupe&gt;">
				<path id="_Tracé_16" data-name="&lt;Tracé&gt;" d="M1314.92,547.18h-6a.93.93,0,1,1,0-1.83h6a.93.93,0,1,1,0,1.83Z" transform="translate(-0.08 -0.71)" fill="#008a68" stroke="#008a68" stroke-miterlimit="10" stroke-width="0"/>
			</g>
			<g id="_Groupe_27" data-name="&lt;Groupe&gt;">
				<path id="_Tracé_17" data-name="&lt;Tracé&gt;" d="M1314.7,544.89h-5.62a.93.93,0,1,1,0-1.83h5.62a.93.93,0,1,1,0,1.83Z" transform="translate(-0.08 -0.71)" fill="#008a68" stroke="#008a68" stroke-miterlimit="10" stroke-width="0"/>
			</g>
			<g id="_Groupe_28" data-name="&lt;Groupe&gt;">
				<path id="_Tracé_18" data-name="&lt;Tracé&gt;" d="M1314.49,542.59h-5.2a.93.93,0,1,1,0-1.83h5.2a.93.93,0,1,1,0,1.83Z" transform="translate(-0.08 -0.71)" fill="#008a68" stroke="#008a68" stroke-miterlimit="10" stroke-width="0"/>
			</g>
		</g>
		<g id="_Groupe_29" data-name="&lt;Groupe&gt;">
			<path id="_Tracé_transparent_4" data-name="&lt;Tracé transparent&gt;" d="M1324.25,580.94h-42.83a1,1,0,0,1-1.05-.92v-3.5a1,1,0,0,1,1.05-.92h42.83a1,1,0,0,1,1.05.92V580A1,1,0,0,1,1324.25,580.94Zm-41.78-1.83h40.72v-1.66h-40.72Z" transform="translate(-0.08 -0.71)" fill="#008a68" stroke="#008a68" stroke-miterlimit="10" stroke-width="0"/>
		</g>
		<g id="_Groupe_30" data-name="&lt;Groupe&gt;">
			<g id="_Groupe_31" data-name="&lt;Groupe&gt;">
				<polygon id="_Tracé_19" data-name="&lt;Tracé&gt;" points="1303.22 569.19 1301.28 568.47 1304.09 562.68 1297.76 563.99 1302.58 553.57 1304.53 554.25 1301.23 561.38 1307.65 560.06 1303.22 569.19" fill="#008a68" stroke="#008a68" stroke-miterlimit="10" stroke-width="0"/>
			</g>
			<g id="_Groupe_32" data-name="&lt;Groupe&gt;">
				<polygon id="_Tracé_20" data-name="&lt;Tracé&gt;" points="1301.2 571.01 1299.36 567.39 1301.29 566.65 1302.26 568.57 1304.74 567.57 1305.62 569.24 1301.2 571.01" fill="#008a68" stroke="#008a68" stroke-miterlimit="10" stroke-width="0"/>
			</g>
		</g>
	</g>
	<circle cx="588.83" cy="517.61" r="15.02" transform="translate(-195.24 519.35) rotate(-41.5)" fill="#fff" stroke="#008a68" stroke-miterlimit="10" stroke-width="3" class="incident_Null" id="___MZCB4B2___TAINC"/>
	<line x1="485.37" y1="515.75" x2="573.73" y2="515.02" fill="none" stroke="#008a68" stroke-miterlimit="10" stroke-width="3"/>
	<circle cx="588.83" cy="598.34" r="15.02" transform="translate(-248.73 539.62) rotate(-41.5)" fill="#fff" stroke="#008a68" stroke-miterlimit="10" stroke-width="3" class="incident_Null" id="___MZCB4B1___TAINC"/>
	<line x1="483.5" y1="599.29" x2="573.73" y2="598.56" fill="none" stroke="#008a68" stroke-miterlimit="10" stroke-width="3"/>
	<circle cx="588.83" cy="99.91" r="15.02" transform="translate(81.52 414.51) rotate(-41.5)" fill="#fff" stroke="#008a68" stroke-miterlimit="10" stroke-width="3" class="incident_Null" id="___MZC120___TAINC"/>
	<line x1="484.43" y1="98.05" x2="575.6" y2="97.32" fill="none" stroke="#008a68" stroke-miterlimit="10" stroke-width="3"/>
	<rect x="179.92" y="172.29" width="292.43" height="450" rx="12" ry="12" fill="none" stroke="#231f20" stroke-miterlimit="10" stroke-width="0.75"/>
	<line x1="199.28" y1="448.91" x2="199.28" y2="630.04" fill="none" stroke="#008a68" stroke-miterlimit="10" stroke-width="3"/>
	<rect x="218.64" y="466.29" width="233.73" height="61.88" rx="12" ry="12" fill="none" stroke="#231f20" stroke-miterlimit="10" stroke-width="0.75"/>
	<rect x="218.64" y="543.29" width="233.73" height="61.24" rx="12" ry="12" fill="none" stroke="#231f20" stroke-miterlimit="10" stroke-width="0.75"/>
	<rect x="219.58" y="394.29" width="233.73" height="58.65" rx="12" ry="12" fill="none" stroke="#231f20" stroke-miterlimit="10" stroke-width="0.75"/>
	<rect x="280" y="444.23" width="95" height="14.34" fill="#fff"/><text transform="translate(309.35 453.18)" font-size="12.12" fill="#231f20" class="Name_Compteur" id="DDR03___MZCB4B6___">Cuisseur1</text>
	<rect x="280" y="520.53" width="95" height="14.34" fill="#fff"/><text transform="translate(309.35 529.48)" font-size="12.12" fill="#231f20" class="Name_Compteur" id="DDR03___MZCB4B7___">Cuisseur2</text>
	<rect x="280" y="599.58" width="95" height="14.34" fill="#fff"/><text transform="translate(309.35 603.83)" font-size="12.12" fill="#231f20" class="Name_Compteur" id="DDR03___MZCB4B8___">Cuisseur3</text>
	<rect x="219.58" y="246.29" width="233.73" height="56.23" rx="12" ry="12" fill="none" stroke="#231f20" stroke-miterlimit="10" stroke-width="0.75"/>
	<rect x="280" y="293.81" width="106.95" height="14.34" fill="#fff"/><text transform="translate(303.75 302.76)" font-size="12.12" fill="#231f20" class="Name_Compteur">
		
		<tspan x="0" y="0" id="DDR03___MZC132___">Autre Viande</tspan>

	</text>
	<rect x="284.44" y="166.12" width="90" height="14.34" fill="#fff"/><text transform="translate(313.78 177.09)" font-size="12.12" fill="#231f20" class="Name_Compteur" id="DDR03___MZC130___">VIANDE</text>
	<circle cx="287.72" cy="299.47" r="15.02" transform="translate(-28.86 567.64) rotate(-86.5)" fill="#fff" stroke="#939598" stroke-miterlimit="10" stroke-width="3" class="incident_Null" id="___MZC132___TAINC"/>
	<rect x="216.69" y="9.08" width="180.22" height="16.9" fill="#fff"/><text transform="translate(264.72 19.66)" font-size="12.12" fill="#231f20" class="Name_Compteur">
		<tspan x="0" y="0" id="DDR03___MZC011___">Géneral Co-Produit</tspan>
	</text>
	<circle cx="236.49" cy="19.18" r="15.02" transform="translate(202.8 253.34) rotate(-86.5)" fill="#fff" stroke="#939598" stroke-miterlimit="10" stroke-width="3" class="incident_Null" id="___MZC011___TAINC"/>
	<circle cx="296.84" cy="173.67" r="15.02" transform="translate(105.27 458.63) rotate(-86.5)" fill="#fff" stroke="#939598" stroke-miterlimit="10" stroke-width="3" class="incident_Null" id="___MZC130___TAINC"/>
	<circle cx="292.41" cy="448.48" r="15.02" transform="translate(-223.84 305.6) rotate(-41.5)" fill="#fff" stroke="#008a68" stroke-miterlimit="10" stroke-width="3" class="incident_Null" id="___MZCB4B6___TAINC"/>
	<line x1="200.22" y1="449.44" x2="277.31" y2="448.71" fill="none" stroke="#00a651" stroke-miterlimit="10" stroke-width="3"/>
	<circle cx="293.35" cy="522.78" r="15.02" transform="translate(-272.83 324.87) rotate(-41.5)" fill="#fff" stroke="#008a68" stroke-miterlimit="10" stroke-width="3" class="incident_Null" id="___MZCB4B7___TAINC"/>
	<line x1="201.16" y1="523.73" x2="278.25" y2="523" fill="none" stroke="#008a68" stroke-miterlimit="10" stroke-width="3"/>
	<circle xmlns="http://www.w3.org/2000/svg" cx="293.35" cy="600.08" r="15.02" transform="translate(-324.05 344.28) rotate(-41.5)" fill="#fff" stroke="#008a68" stroke-miterlimit="10" stroke-width="3" class="incident_Null" id="___MZCB4B8___TAINC"/>
	<line x1="201.16" y1="601.03" x2="278.25" y2="600.3" fill="none" stroke="#008a68" stroke-miterlimit="10" stroke-width="3"/>
	<circle xmlns="http://www.w3.org/2000/svg" cx="933.55" cy="344.76" r="15.02" transform="translate(532.3 1254.78) rotate(-86.5)" fill="#fff" stroke="#008a68" stroke-miterlimit="10" stroke-width="3" class="incident_Null" id="___MZCB4A4___TAINC"/>
	<line x1="826.34" y1="341.96" x2="920.32" y2="341.23" fill="none" stroke="#008a68" stroke-miterlimit="10" stroke-width="3"/>
	<line x1="825.4" y1="432.07" x2="917.51" y2="431.34" fill="none" stroke="#008a68" stroke-miterlimit="10" stroke-width="3" class="incident_Null"/>
	<circle cx="897.88" cy="518.17" r="15.02" transform="translate(325.73 1381.99) rotate(-86.5)" fill="#fff" stroke="#008a68" stroke-miterlimit="10" stroke-width="3" class="incident_Null" id="___MZCB4A2___TAINC"/>
	<line x1="826.34" y1="515.37" x2="884.65" y2="514.64" fill="none" stroke="#008a68" stroke-miterlimit="10" stroke-width="3"/>
	<circle cx="922.28" cy="600.77" r="15.02" transform="translate(266.19 1483.9) rotate(-86.5)" fill="#fff" stroke="#008a68" stroke-miterlimit="10" stroke-width="3" class="incident_Null" id="___MZCB4A3___TAINC"/>
	<line x1="828.21" y1="600.79" x2="909.06" y2="600.06" fill="none" stroke="#008a68" stroke-miterlimit="10" stroke-width="3"/>
	<line x1="1024" y1="116" x2="1302.86" y2="116" fill="none" stroke="#60c9da" stroke-miterlimit="10" stroke-width="3"/>
	<line x1="1275.85" y1="542.04" x2="1293.78" y2="541.31" fill="#00a651" stroke="#008a68" stroke-miterlimit="10" stroke-width="3"/>
	<line x1="1275" y1="540.37" x2="1275" y2="630.48" fill="none" stroke="#008a68" stroke-miterlimit="10" stroke-width="2"/>
	<rect x="828.99" y="225.02" width="242.27" height="46.65" rx="12" ry="12" fill="none" stroke="#231f20" stroke-miterlimit="10" stroke-width="2"/><text transform="translate(847.75 241.04)" font-size="12.12" fill="#231f20" font-family="balto">
		<tspan x="0" y="0">Consommation</tspan><tspan x="80" y="0" class="data" id="___MZCB4A___KWh"/>
	</text><text transform="translate(847.75 263.29)" font-size="12.12" fill="#231f20" font-family="balto">
		<tspan x="0" y="0">Partage</tspan><tspan x="80" y="0" class="data" id="___MZCB4A___Part_KWh"/>
	</text>
	<circle cx="838.79" cy="237.12" r="4.02" fill="#808285"/>
	<circle cx="839.73" cy="259.63" r="4.02" fill="#808285"/>
	<path d="M305.11,47.08" transform="translate(-0.08 -0.71)" fill="none" stroke="#00a651" stroke-miterlimit="10" stroke-width="2"/>
	<rect x="268.03" y="25.98" width="242.27" height="46.65" rx="12" ry="12" fill="none" stroke="#231f20" stroke-miterlimit="10" stroke-width="2"/><text transform="translate(286.8 42.01)" font-size="12.12" fill="#231f20" font-family="balto">
		<tspan x="0" y="0">Consommation</tspan><tspan x="80" y="0" class="data" id="___MZC011___KWh"/>
	</text><text transform="translate(286.8 64.25)" font-size="12.12" fill="#231f20" font-family="balto">
		<tspan x="0" y="0">Partage</tspan><tspan x="80" y="0" class="data" id="___MZC011___Part_KWh"/>
	</text>
	<circle cx="277.83" cy="38.08" r="4.02" fill="#808285"/>
	<circle cx="278.77" cy="60.59" r="4.02" fill="#808285"/>
	<path d="M239.75,129.69" transform="translate(-0.08 -0.71)" fill="none" stroke="#00a651" stroke-miterlimit="10" stroke-width="2"/>
	<rect x="202.67" y="108.58" width="242.27" height="46.65" rx="12" ry="12" fill="none" stroke="#231f20" stroke-miterlimit="10" stroke-width="2"/><text transform="translate(221.44 124.61)" font-size="12.12" fill="#231f20" font-family="balto">
			<tspan x="0" y="0">Consommation</tspan><tspan x="80" y="0" class="data" id="___MZCB4B___KWh"/>
	</text><text transform="translate(221.44 146.86)" font-size="12.12" fill="#231f20" font-family="balto">
			<tspan x="0" y="0">Partage</tspan><tspan x="80" y="0" class="data" id="___MZCB4B___Part_KWh"/>
	</text>
	<circle cx="212.47" cy="120.68" r="4.02" fill="#808285"/>
	<circle cx="213.41" cy="143.19" r="4.02" fill="#808285"/>
	<path d="M229.69,213.37" transform="translate(-0.08 -0.71)" fill="none" stroke="#00a651" stroke-miterlimit="10" stroke-width="2"/>
	<rect x="192.61" y="192.26" width="242.27" height="46.65" rx="12" ry="12" fill="none" stroke="#231f20" stroke-miterlimit="10" stroke-width="2"/><text transform="translate(211.38 208.29)" font-size="12.12" fill="#231f20" font-family="balto">
		<tspan x="0" y="0">Consommation</tspan><tspan x="80" y="0" class="data" id="___MZC130___KWh"/>
	</text><text transform="translate(211.38 230.54)" font-size="12.12" fill="#231f20" font-family="balto">
		<tspan x="0" y="0">Partage</tspan><tspan x="80" y="0" class="data" id="___MZC130___Part_KWh"/>
	</text>
	<circle cx="202.41" cy="204.36" r="4.02" fill="#808285"/>
	<circle cx="203.35" cy="226.88" r="4.02" fill="#808285"/>
	<path d="M556.08,134.38" transform="translate(-0.08 -0.71)" fill="none" stroke="#00a651" stroke-miterlimit="10" stroke-width="2"/>
	<rect x="519" y="113.27" width="242.27" height="46.65" rx="12" ry="12" fill="none" stroke="#231f20" stroke-miterlimit="10" stroke-width="2"/><text transform="translate(537.77 129.3)" font-size="12.12" fill="#231f20" font-family="balto">
		<tspan x="0" y="0">Consommation</tspan><tspan x="80" y="0" class="data" id="___MZC120___KWh"/>
	</text><text transform="translate(537.77 151.55)" font-size="12.12" fill="#231f20" font-family="balto">
		<tspan x="0" y="0">Partage</tspan><tspan xmlns="http://www.w3.org/2000/svg" x="80" y="0" id="___MZC120___Part_KWh" class="data"/>
	</text>
	<circle cx="528.8" cy="125.37" r="4.02" fill="#808285"/>
	<circle cx="529.74" cy="147.89" r="4.02" fill="#808285"/>
	<rect x="850.39" y="363.29" width="233.73" height="72.28" rx="12" ry="12" fill="none" stroke="#231f20" stroke-miterlimit="10" stroke-width="0.75"/>
	<rect x="920.32" y="426.39" width="75" height="14.34" fill="#fff"/><text transform="translate(949.58 434.4)" font-size="12.12" fill="#231f20" class="Name_Compteur">
	
		<tspan x="0" y="0" id="DDR03___MZCB4A1___">Admin</tspan>
	</text>
	<circle cx="930.73" cy="431.12" r="15.02" transform="translate(443.46 1333.05) rotate(-86.5)" fill="#fff" stroke="#008a68" stroke-miterlimit="10" stroke-width="3" class="incident_Null" id="___MZCB4A1___TAINC"/>
	<rect x="606.44" y="645.87" width="106.95" height="3.58" fill="#fff"/>
	<rect x="130.02" y="273" width="14.9" height="40.29" fill="#fff"/><text transform="translate(238.44 257.61)" font-size="12.12" fill="#231f20" font-family="balto">
		<tspan x="0" y="0">Consommation</tspan><tspan x="80" y="0" class="data" id="___MZC132___KWh"/>
	</text><text transform="translate(238.44 279.86)" font-size="12.12" fill="#231f20" font-family="balto">
			<tspan x="0" y="0">Partage</tspan><tspan x="80" y="0" class="data" id="___MZC132___Part_KWh"/>
	</text>
	<circle cx="229.47" cy="253.68" r="4.02" fill="#808285"/>
	<circle cx="230.41" cy="276.19" r="4.02" fill="#808285"/><text transform="translate(239.44 405.61)" font-size="12.12" fill="#231f20" font-family="balto">
			<tspan x="0" y="0">Consommation</tspan><tspan x="80" y="0" class="data" id="___MZCB4B6___KWh"/>
	</text><text transform="translate(239.44 427.86)" font-size="12.12" fill="#231f20" font-family="balto">
			<tspan x="0" y="0">Partage</tspan><tspan x="80" y="0" class="data" id="___MZCB4B6___Part_KWh"/>
	</text>
	<circle cx="230.47" cy="401.68" r="4.02" fill="#808285"/>
	<circle cx="231.41" cy="424.19" r="4.02" fill="#808285"/><text transform="translate(240.44 480.61)" font-size="12.12" fill="#231f20" font-family="balto">
			<tspan x="0" y="0">Consommation</tspan><tspan x="80" y="0" class="data" id="___MZCB4B7___KWh"/>
	</text><text transform="translate(240.44 502.86)" font-size="12.12" fill="#231f20" font-family="balto">
			<tspan x="0" y="0">Partage</tspan><tspan x="80" y="0" class="data" id="___MZCB4B7___Part_KWh"/>
	</text>
	<circle cx="231.47" cy="476.68" r="4.02" fill="#808285"/>
	<circle cx="232.41" cy="499.19" r="4.02" fill="#808285"/><text transform="translate(241.44 556.61)" font-size="12.12" fill="#231f20" font-family="balto">
			<tspan x="0" y="0">Consommation</tspan><tspan x="80" y="0" class="data" id="___MZCB4B8___KWh"/>
	</text><text transform="translate(241.44 578.86)" font-size="12.12" fill="#231f20" font-family="balto">
			<tspan x="0" y="0">Partage</tspan><tspan x="80" y="0" class="data" id="___MZCB4B8___Part_KWh"/>
	</text>
	<circle cx="232.47" cy="552.68" r="4.02" fill="#808285"/>
	<circle cx="233.41" cy="575.19" r="4.02" fill="#808285"/><text transform="translate(543.44 188.61)" font-size="12.12" fill="#231f20" font-family="balto">
		<tspan x="0" y="0">Consommation</tspan><tspan x="80" y="0" class="data" id="___MZCB4B4___KWh"/>
	</text><text transform="translate(543.44 210.86)" font-size="12.12" fill="#231f20" font-family="balto">
		<tspan x="0" y="0">Partage</tspan><tspan x="80" y="0" class="data" id="___MZCB4B4___Part_KWh"/>
	</text>
	<circle cx="534.47" cy="184.68" r="4.02" fill="#808285"/>
	<circle cx="535.41" cy="207.19" r="4.02" fill="#808285"/><text transform="translate(543.44 281.61)" font-size="12.12" fill="#231f20" font-family="balto">
		<tspan x="0" y="0">Consommation</tspan><tspan x="80" y="0" class="data" id="___MZCB4B5___KWh"/>
	</text><text transform="translate(543.44 303.86)" font-size="12.12" fill="#231f20" font-family="balto">
		<tspan x="0" y="0">Partage</tspan><tspan x="80" y="0" class="data" id="___MZCB4B5___Part_KWh"/>
	</text>
	<circle cx="534.47" cy="277.68" r="4.02" fill="#808285"/>
	<circle cx="535.41" cy="300.19" r="4.02" fill="#808285"/><text transform="translate(528.44 382.61)" font-size="12.12" fill="#231f20" font-family="balto">
		
		<tspan x="0" y="0">Consommation</tspan><tspan x="80" y="0" class="data" id="___MZCB4B3___KWh"/>
	</text><text transform="translate(528.44 404.86)" font-size="12.12" fill="#231f20" font-family="balto">
		<tspan x="0" y="0">Partage</tspan><tspan x="80" y="0" class="data" id="___MZCB4B3___Part_KWh"/>
	</text>
	<circle cx="519.47" cy="378.68" r="4.02" fill="#808285"/>
	<circle cx="520.41" cy="401.19" r="4.02" fill="#808285"/><text transform="translate(528.44 471.61)" font-size="12.12" fill="#231f20" font-family="balto">
		<tspan x="0" y="0">Consommation</tspan><tspan x="80" y="0" class="data" id="___MZCB4B2___KWh"/>
	</text><text transform="translate(528.44 493.86)" font-size="12.12" fill="#231f20" font-family="balto">
		<tspan x="0" y="0">Partage</tspan><tspan x="80" y="0" class="data" id="___MZCB4B2___Part_KWh"/>
	</text>
	<circle cx="519.47" cy="467.68" r="4.02" fill="#808285"/>
	<circle cx="520.41" cy="490.19" r="4.02" fill="#808285"/><text transform="translate(529.44 558.61)" font-size="12.12" fill="#231f20" font-family="balto">
		<tspan x="0" y="0">Consommation</tspan><tspan x="80" y="0" class="data" id="___MZCB4B1___KWh"/>
	</text><text transform="translate(529.44 580.86)" font-size="12.12" fill="#231f20" font-family="balto">
		<tspan x="0" y="0">Partage</tspan><tspan x="80" y="0" class="data" id="___MZCB4B1___Part_KWh"/>
	</text>
	<circle cx="520.47" cy="554.68" r="4.02" fill="#808285"/>
	<circle cx="521.41" cy="577.19" r="4.02" fill="#808285"/><text transform="translate(852.03 142.12)" font-size="12.12" fill="#231f20" font-family="balto">
		<tspan x="0" y="0">Consommation</tspan><tspan x="80" y="0" class="data" id="___MZCB1B1___KWh"/>
	</text><text transform="translate(852.03 164.37)" font-size="12.12" fill="#231f20" font-family="balto">
		<tspan x="0" y="0">Partage</tspan><tspan x="80" y="0" class="data" id="___MZCB1B1___Part_KWh"/>
	</text>
	<circle cx="843.06" cy="138.19" r="4.02" fill="#808285"/>
	<circle cx="844" cy="160.71" r="4.02" fill="#808285"/><text transform="translate(871.44 300.61)" font-size="12.12" fill="#231f20" font-family="balto">
	<tspan x="0" y="0">Consommation</tspan><tspan x="80" y="0" class="data" id="___MZCB4A4___KWh"/>
	</text><text transform="translate(871.44 322.86)" font-size="12.12" fill="#231f20" font-family="balto">
		<tspan x="0" y="0">Partage</tspan><tspan x="80" y="0" class="data" id="___MZCB4A4___Part_KWh"/>
	</text>
	<circle cx="862.47" cy="296.68" r="4.02" fill="#808285"/>
	<circle cx="863.41" cy="319.19" r="4.02" fill="#808285"/><text transform="translate(873.44 386.61)" font-size="12.12" fill="#231f20" font-family="balto">
		<tspan x="0" y="0">Consommation</tspan><tspan x="80" y="0" class="data" id="___MZCB4A1___KWh"/>
	</text><text transform="translate(873.44 408.86)" font-size="12.12" fill="#231f20" font-family="balto">
		<tspan x="0" y="0">Partage</tspan><tspan x="80" y="0" class="data" id="___MZCB4A1___Part_KWh"/>
	</text>
	<circle cx="864.47" cy="382.68" r="4.02" fill="#808285"/>
	<circle cx="865.41" cy="405.19" r="4.02" fill="#808285"/><text transform="translate(874.44 472.61)" font-size="12.12" fill="#231f20" font-family="balto">
	<tspan x="0" y="0">Consommation</tspan><tspan x="80" y="0" class="data" id="___MZCB4A2___KWh"/>
	</text><text transform="translate(874.44 494.86)" font-size="12.12" fill="#231f20" font-family="balto">
		<tspan x="0" y="0">Partage</tspan><tspan x="80" y="0" class="data" id="___MZCB4A2___Part_KWh"/>
	</text>
	<circle cx="865.47" cy="468.68" r="4.02" fill="#808285"/>
	<circle cx="866.41" cy="491.19" r="4.02" fill="#808285"/><text transform="translate(875.44 558.61)" font-size="12.12" fill="#231f20" font-family="balto">
		<tspan x="0" y="0">Consommation</tspan><tspan x="80" y="0" class="data" id="___MZCB4A3___KWh"/>
	</text><text transform="translate(875.44 580.86)" font-size="12.12" fill="#1a1919" font-family="balto">
		<tspan x="0" y="0">Partage</tspan><tspan x="80" y="0" class="data" id="___MZCB4A3___Part_KWh"/>
	</text>
	<circle cx="866.47" cy="554.68" r="4.02" fill="#808285"/>
	<circle cx="867.41" cy="577.19" r="4.02" fill="#808285"/>
	<rect x="789.92" y="26.29" width="333" height="597" rx="12" ry="12" fill="none" stroke="#231f20" stroke-miterlimit="10" stroke-width="0.75"/>
	<path d="M865.07,64.12" transform="translate(-0.08 -0.71)" fill="none" stroke="#00a651" stroke-miterlimit="10" stroke-width="2"/>
	<rect x="827.99" y="47.02" width="242.27" height="46.65" rx="12" ry="12" fill="none" stroke="#231f20" stroke-miterlimit="10" stroke-width="2"/><text transform="translate(846.75 63.04)" font-size="12.12" fill="#231f20" font-family="balto">
		<tspan x="0" y="0">Consommation</tspan><tspan x="80" y="0" class="data" id="___MZC200___KWh"/>
	</text><text transform="translate(846.75 85.29)" font-size="12.12" fill="#231f20" font-family="balto">
		<tspan x="0" y="0">Partage</tspan><tspan x="80" y="0" class="data" id="___MZC200___Part_KWh"/>
	</text>
	<circle cx="837.79" cy="59.12" r="4.02" fill="#808285"/>
	<circle cx="838.73" cy="81.63" r="4.02" fill="#808285"/>
	<rect x="890" y="20.89" width="126.69" height="12.8" fill="#fff"/><text transform="translate(900.15 30.55)" font-size="12.12" fill="#231f20" class="Name_Compteur">
		<tspan x="0" y="0" id="DDR03___MZC200___">Facilité Co-Produit</tspan>

	</text>
	<circle cx="883.31" cy="30.33" r="15.02" transform="translate(798.97 909.42) rotate(-86.5)" fill="#fff" stroke="#a7a9ac" stroke-miterlimit="10" stroke-width="3" class="incident_Null" id="___MZC200___TAINC"/>
	<path d="M253.75,361.69" transform="translate(-0.08 -0.71)" fill="none" stroke="#00a651" stroke-miterlimit="10" stroke-width="2"/>
	<rect x="216.67" y="341.29" width="242.27" height="45.95" rx="12" ry="12" fill="none" stroke="#231f20" stroke-miterlimit="10" stroke-width="2"/><text transform="translate(235.44 356.61)" font-size="12.12" fill="#231f20" font-family="balto">
		<tspan x="0" y="0">Consommation</tspan><tspan x="80" y="0" class="data" id="___MZC131___KWh"/>
	</text><text transform="translate(235.44 378.86)" font-size="12.12" fill="#231f20" font-family="balto">
		<tspan x="0" y="0">Partage</tspan><tspan x="80" y="0" class="data" id="___MZC131___Part_KWh">
		</tspan>
	</text>
	<circle cx="226.47" cy="352.68" r="4.02" fill="#808285"/>
	<circle cx="227.41" cy="375.19" r="4.02" fill="#808285"/>
	<rect x="208.92" y="323.29" width="255" height="292" rx="12" ry="12" fill="none" stroke="#231f20" stroke-miterlimit="10" stroke-width="0.75"/>
	<circle cx="425.72" cy="321.47" r="15.02" transform="translate(78.75 726.04) rotate(-86.5)" fill="#fff" stroke="#939598" stroke-miterlimit="10" stroke-width="3" class="incident_Null" id="___MZC131___TAINC"/>
	<rect x="351.92" y="311.29" width="56.71" height="15" fill="#fff"/><text transform="translate(350 323.76)" font-size="12.12" fill="#231f20" class="Name_Compteur">
		<tspan x="0" y="0" id="DDR03___MZC131___">Cuisseurs</tspan>
	</text>
	<rect y="283.96" width="36.92" height="91.23" fill="#fff"/>
	<rect x="1264.92" y="249.25" width="86" height="94.47" fill="#fff"/>
	<rect x="488.31" y="645.87" width="180.22" height="3.58" fill="#fff"/>
	<rect x="578.42" y="0.63" width="180.22" height="6.53" fill="#fff"/>
	<circle cx="227.53" cy="90.69" r="15.02" transform="translate(123.02 311.55) rotate(-86.5)" fill="#fff" stroke="#939598" stroke-miterlimit="10" stroke-width="3" class="incident_Null" id="___MZCB4B___TAINC"/>
	<circle cx="101" cy="46.37" r="11.5" fill="#fff" stroke="#010101" stroke-miterlimit="10" stroke-width="3" id="DDR013______"/><text transform="translate(94.1 56.37)" font-size="30" fill="#010101" font-family="MSReferenceSansSerif, MS Reference Sans Serif" id="DDR013______">-</text>
</svg>