<svg xmlns="http://www.w3.org/2000/svg" id="Layer_1" data-name="Layer 1" viewBox="0 0 1348.34 650.18" class="style_svg">
    <title>Bilan Energitique Site ElMazraa</title>
     <style type="text/css">
    .incident_True{
    fill: red;
  }
    .incident_False{
    fill: green;
  }
    .incident_Null{
    fill: white;

  }
      .data{
    stroke: rgb(0, 88, 94) ;
    stroke-width: 0.5;
  }

</style>
    <rect id="reportCode" dl="DDR03" zpm="DDR04,DDR05,DDR06,DDR08,DDR010,DDR011,DDR013"/>
    <rect x="509.89" width="101.05" height="3.54" fill="#fff"/>
    <rect x="1331.72" y="224.43" width="16.62" height="114.23" fill="#fff"/>
    <rect x="544.37" y="649.32" width="101.05" height="0.86" fill="#fff"/>
    <rect y="279.12" width="16.17" height="90.57" fill="#fff"/>
    <rect x="1331.65" y="288.59" width="16.62" height="114.23" fill="#fff"/>
    <rect x="332.62" y="127.53" width="251.39" height="45.8" rx="12" ry="12" fill="none" stroke="#231f20" stroke-miterlimit="10" stroke-width="2"/>
    <rect x="379.4" y="118.7" width="101.05" height="16.28" fill="#e6e7e7"/><text transform="translate(402.89 131.96)" font-size="12.89" fill="#231f20" font-family="TimesNewRomanPS-BoldMT, Times New Roman" font-weight="700">Electrique</text>
    <rect x="638.56" y="127.53" width="264.46" height="45.8" rx="12" ry="12" fill="none" stroke="#231f20" stroke-miterlimit="10" stroke-width="2"/>
    <rect x="690.09" y="118.7" width="101.05" height="16.28" fill="#e6e7e7"/><text xmlns="http://www.w3.org/2000/svg" transform="translate(352.51 154.25)" font-size="12" fill="#231f20" font-family="Gotham-Medium, Gotham">
        <tspan x="0" y="0">Consommation</tspan><tspan x="75" y="0" class="data" id="___MZC001___KWh"/>
    </text>
    
    <circle cx="344.98" cy="150.4" r="4.07" fill="#6d6e71"/><text transform="translate(714.53 131.01)" font-size="12.89" fill="#231f20" font-family="TimesNewRomanPS-BoldMT, Times New Roman" font-weight="700">
          <tspan x="0" y="0">Vapeur</tspan>
    </text><text xmlns="http://www.w3.org/2000/svg" font-family="Gotham-Medium, Gotham" fill="#231f20" font-size="12" transform="translate(659.4 154.25)">
 <tspan x="0" y="0">Consommation</tspan><tspan x="75" y="0" class="data" id="___MZV00F___Tonnes"/>
    </text>
    <circle cx="651.86" cy="150.4" r="4.07" fill="#6d6e71"/>
    <circle cx="691.01" cy="126.32" r="11.5" fill="#fff" stroke="#010101" stroke-miterlimit="10" stroke-width="3" id="DDR05______"/>
    <text transform="translate(682.01 133.32)" font-size="22" fill="#010101" font-family="MSReferenceSansSerif, MS Reference Sans Serif" id="DDR05______">+</text>
    <rect x="14.51" y="80.32" width="1319" height="514" rx="12" ry="12" fill="none" stroke="#231f20" stroke-miterlimit="10" stroke-width="0.75"/>
    <rect x="159.24" y="75.99" width="150" height="16.28" fill="#fff"/><text transform="translate(159.16 84.42)" font-size="25" fill="#231f20" font-family="Gotham-Medium, Gotham">
      <tspan x="0" y="0">Site ElMazraa</tspan>
    </text>
    <line x1="55.51" y1="203.82" x2="1285.51" y2="202.82" fill="none" stroke="#231f20" stroke-miterlimit="10" stroke-width="0.75"/>
    <rect x="930.45" y="243.87" width="275.06" height="70" rx="12" ry="12" fill="none" stroke="#231f20" stroke-miterlimit="10" stroke-width="0.75"/>
    <rect x="980" y="236.32" width="85" height="15.95" fill="#fff"/><text transform="translate(985 247.52)" font-size="18" fill="#231f20" font-family="Gotham-Medium, Gotham" font-weight="700">
      <tspan x="0" y="0">ElMazraa</tspan>
    </text>
    <rect x="62.51" y="246.87" width="809" height="230.95" rx="12" ry="12" fill="none" stroke="#231f20" stroke-miterlimit="10" stroke-width="0.75"/>
    <rect x="309.24" y="238.99" width="101.05" height="16.28" fill="#fff"/><text transform="translate(320 250.52)" font-size="18" fill="#231f20" font-family="Gotham-Medium, Gotham" font-weight="700">
         <tspan x="0" y="0">Co-Produit</tspan>
    </text><text xmlns="http://www.w3.org/2000/svg" transform="translate(958.36 284.46)" font-size="12" fill="#231f20" font-family="Gotham-Medium, Gotham">
         <tspan x="0" y="0">Communication</tspan><tspan x="80" y="0" class="data" id="___MZV00A___Tonnes"/>
    </text>
    <circle cx="952.83" cy="280.62" r="4.07" fill="#676767"/>
    <rect x="942.44" y="263.12" width="251.58" height="33.2" rx="12" ry="12" fill="none" stroke="#231f20" stroke-miterlimit="10" stroke-width="2"/>
    <rect x="979.36" y="254.78" width="101.05" height="16.28" fill="#e6e7e7"/><text transform="translate(1002.85 269.77)" font-size="12.89" fill="#231f20" font-family="TimesNewRomanPS-BoldMT, Times New Roman" font-weight="700">
      <tspan x="0" y="0">Vapeur</tspan>
    </text>
<text xmlns="http://www.w3.org/2000/svg" transform="translate(89.81 300.6)" font-size="12" fill="#231f20" font-family="Gotham-Medium, Gotham">
    <tspan x="30" y="0">Tonnes PPF-1</tspan> <tspan xmlns="http://www.w3.org/2000/svg" x="100" y="0" class="data" id="___MZP002___Tonnes-1"/>
</text>
    <circle cx="110" cy="296.75" r="4.07" fill="#676767"/>
    
    <text xmlns="http://www.w3.org/2000/svg" transform="translate(458.93 365.1)" font-size="12" fill="#231f20" font-family="Gotham-Medium, Gotham">
       <tspan x="0" y="0">Consommation</tspan><tspan x="75" y="0" class="data" id="___MZC011___KWh"/>
    </text><text xmlns="http://www.w3.org/2000/svg" transform="translate(458.93 386)" font-size="12" fill="#231f20" font-family="Gotham-Medium, Gotham">
    <tspan x="0" y="0">Ratio</tspan><tspan x="75" y="0" class="data" id="___MZC011___Ratio"/>
    </text>
    <circle cx="453.39" cy="361.26" r="4.07" fill="#676767"/>
    <circle cx="453.39" cy="382.29" r="4.07" fill="#676767"/>
    <rect x="90" y="281.52" width="400" height="33.3" rx="12" ry="12" fill="none" stroke="#231f20" stroke-miterlimit="10" stroke-width="3"/>
    <rect x="443" y="338.28" width="252.01" height="54.04" rx="12" ry="12" fill="none" stroke="#231f20" stroke-miterlimit="10" stroke-width="2"/>
    <rect x="479.93" y="330.42" width="101.05" height="16.28" fill="#e6e7e7"/><text transform="translate(503.42 342.41)" font-size="12.89" fill="#231f20" font-family="TimesNewRomanPS-BoldMT, Times New Roman" font-weight="700">Electrique</text><text xmlns="http://www.w3.org/2000/svg" transform="translate(106.92 365.33)" font-size="12" fill="#231f20" font-family="Gotham-Medium, Gotham">
       <tspan x="0" y="0">Consommation</tspan><tspan x="75" y="0" class="data" id="___MZV002___Tonnes"/>
    </text><text xmlns="http://www.w3.org/2000/svg" transform="translate(106.92 386.23)" font-size="12" fill="#231f20" font-family="Gotham-Medium, Gotham">
    <tspan x="0" y="0">Ratio</tspan><tspan x="75" y="0" class="data" id="___MZV002___Ratio"/>
    </text>
    <circle cx="99.38" cy="361.49" r="4.07" fill="#676767"/>
    <circle cx="99.38" cy="382.52" r="4.07" fill="#676767"/>
    <rect x="90.99" y="338.51" width="251.03" height="53.81" rx="12" ry="12" fill="none" stroke="#231f20" stroke-miterlimit="10" stroke-width="2"/>
    <rect x="127.91" y="330.65" width="101.05" height="16.28" fill="#e6e7e7"/><text xmlns="http://www.w3.org/2000/svg" transform="translate(461.31 438.87)" font-size="12" fill="#231f20" font-family="Gotham-Medium, Gotham">
        <tspan x="0" y="0">Consommation</tspan><tspan x="75" y="0" class="data" id="___MZO100___m3"/>
    </text><text xmlns="http://www.w3.org/2000/svg" transform="translate(461.31 459.77)" font-size="12" fill="#231f20" font-family="Gotham-Medium, Gotham">
      <tspan x="0" y="0">Ratio</tspan><tspan x="75" y="0" class="data" id="___MZO100___Ratio"/>
    </text>
    <circle cx="454.39" cy="435.03" r="4.07" fill="#676767"/>
    <circle cx="454.39" cy="456.06" r="4.07" fill="#676767"/>
    <rect x="445.39" y="412.05" width="252.63" height="54.27" rx="12" ry="12" fill="none" stroke="#231f20" stroke-miterlimit="10" stroke-width="2"/>
    <rect x="482.31" y="404.19" width="101.05" height="16.28" fill="#e6e7e7"/><text transform="translate(156.25 342.94)" font-size="12.89" fill="#231f20" font-family="TimesNewRomanPS-BoldMT, Times New Roman" font-weight="700">
     <tspan x="0" y="0">Vapeur</tspan>
    </text><text transform="translate(506.61 415.68)" font-size="11.53" fill="#231f20" font-family="TimesNewRomanPS-BoldMT, Times New Roman" font-weight="700">Eau Osmosé </text>
    <rect x="193.37" y="270.56" width="101.05" height="16.28" fill="#e6e7e7"/><text transform="translate(207.94 282.71)" font-size="12.89" fill="#231f20" font-family="TimesNewRomanPS-BoldMT, Times New Roman" font-weight="700">
      <tspan x="0" y="0">Production</tspan>
    </text><text xmlns="http://www.w3.org/2000/svg" transform="translate(106.42 436.44)" font-size="12" fill="#231f20" font-family="Gotham-Medium, Gotham">
          <tspan x="0" y="0">Consommation</tspan><tspan x="75" y="0" class="data" id="___MZB100___m3"/> 
    </text><text xmlns="http://www.w3.org/2000/svg" transform="translate(106.42 457.34)" font-size="12" fill="#231f20" font-family="Gotham-Medium, Gotham">
      <tspan x="0" y="0">Ratio</tspan><tspan x="75" y="0" class="data" id="___MZB100___Ratio"/> 
    </text>
    <circle cx="99.5" cy="432.6" r="4.07" fill="#676767"/>
    <circle cx="99.5" cy="453.63" r="4.07" fill="#676767"/>
    <rect x="90.49" y="409.63" width="251.52" height="56.7" rx="12" ry="12" fill="none" stroke="#231f20" stroke-miterlimit="10" stroke-width="2"/>
    <rect x="127.42" y="403.76" width="101.05" height="16.28" fill="#e6e7e7"/><text transform="translate(151.72 414.02)" font-size="12.89" fill="#231f20" font-family="TimesNewRomanPS-BoldMT, Times New Roman" font-weight="700">Eau Brute</text>
    <circle cx="423.01" cy="247.32" r="11.5" fill="#fff" stroke="#010101" stroke-miterlimit="10" stroke-width="3"/>
    <text transform="translate(414.01 254.32)" font-size="22" fill="#010101" font-family="MSReferenceSansSerif, MS Reference Sans Serif" id="DDR013______">+</text>
    <circle cx="581.01" cy="338.32" r="11.5" fill="#fff" stroke="#010101" stroke-miterlimit="10" stroke-width="3" id="DDR010______"/>
    <text transform="translate(572.01 345.32)" font-size="22" fill="#010101" font-family="MSReferenceSansSerif, MS Reference Sans Serif" id="DDR010______">+</text>
    <circle cx="584.01" cy="412.32" r="11.5" fill="#fff" stroke="#010101" stroke-miterlimit="10" stroke-width="3" id="DDR011______"/>
    <text transform="translate(575.01 419.32)" font-size="22" fill="#010101" font-family="MSReferenceSansSerif, MS Reference Sans Serif" id="DDR011______">+</text>
    <circle cx="239.01" cy="413.32" r="11.5" fill="#fff" stroke="#010101" stroke-miterlimit="10" stroke-width="3" id="DDR011______"/>
    <text transform="translate(230.01 420.32)" font-size="22" fill="#010101" font-family="MSReferenceSansSerif, MS Reference Sans Serif" id="DDR011______">+</text>
    <circle cx="234.01" cy="338.32" r="11.5" fill="#fff" stroke="#010101" stroke-miterlimit="10" stroke-width="3" id="DDR06______"/>
    <text transform="translate(225.01 345.32)" font-size="22" fill="#010101" font-family="MSReferenceSansSerif, MS Reference Sans Serif" id="DDR06______">+</text>
    
    
    
    <circle cx="370" cy="126.32" r="11.5" fill="#fff" stroke="#010101" stroke-miterlimit="10" stroke-width="3" id="DDR08______"/>
    <text transform="translate(360 133.32)" font-size="22" fill="#010101" font-family="MSReferenceSansSerif, MS Reference Sans Serif" id="DDR08______">+</text>
      <circle cx="1068.01" cy="259.32" r="11.5" fill="#fff" stroke="#010101" stroke-miterlimit="10" stroke-width="3" id="DDR04______"/>
    <text transform="translate(1059.01 266.32)" font-size="22" fill="#010101" font-family="MSReferenceSansSerif, MS Reference Sans Serif" id="DDR04______">+</text>
</svg>